# xmcd
#
# Track frame offsets:
#	150
#	20191
#	36361
#	58912
#	75939
#	98476
#	111935
#	137337
#	151194
#	169453
#
# Disc length: 2447 seconds
#
# Revision: 0
# Processed by: cddbd v1.5.2PL0 Copyright (c) Steve Scherf et al.
# Submitted via: dBpowerAMP V4.0
#
DISCID=7a098d0a
DTITLE=Cody Jinks - Less Wise
DYEAR=2013
DGENRE=Country
TTITLE0=No Time
TTITLE1=Wake Up Becki
TTITLE2=Hippies and Cowboys
TTITLE3=65 Days In L.A.
TTITLE4=Somewhere In The Middle
TTITLE5=Been Around
TTITLE6=Last Call For The Blues
TTITLE7=Cuse The Sky
TTITLE8=Loveletters and Cigarettes
TTITLE9=Less Wise
EXTD=
EXTT0=
EXTT1=
EXTT2=
EXTT3=
EXTT4=
EXTT5=
EXTT6=
EXTT7=
EXTT8=
EXTT9=
PLAYORDER=
